<svg width="1200" height="900" viewBox="0 0 1200 900" fill="none" xmlns="http://www.w3.org/2000/svg" role="img" aria-label="AI + Robotics + Manufacturing network">
  <!-- =========================
       THEME COLORS (easy to tweak)
       ========================= -->
  <defs>
    <style><![CDATA[
      :root {
        --blue: #2563EB;     /* 主蓝：匹配 text-blue-600 */
        --blue-soft: #93C5FD;/* 浅蓝线条 */
        --blue-tint: #BFDBFE;/* 更浅蓝 */
        --ink1: #1F2937;     /* 深灰（机械臂/工厂） */
        --ink2: #374151;     /* 次深灰 */
        --ink3: #4B5563;     /* 中灰 */
        --bg-hi: #F3F4F6;    /* 背景高光 */
        --bg-lo: #E5E7EB;    /* 背景低光 */
        --violet: #7C3AED;   /* 紫色点缀 */
        --green: #10B981;    /* 绿色点缀 */
      }
    ]]></style>

    <!-- 背景渐变 -->
    <linearGradient id="bg" x1="0" y1="0" x2="0" y2="900" gradientUnits="userSpaceOnUse">
      <stop offset="0" stop-color="var(--bg-hi)"/>
      <stop offset="1" stop-color="var(--bg-lo)"/>
    </linearGradient>

    <!-- 紫色光晕 -->
    <radialGradient id="glow" cx="0" cy="0" r="1" gradientUnits="userSpaceOnUse"
      gradientTransform="translate(620 450) rotate(90) scale(560 720)">
      <stop offset="0" stop-color="var(--violet)" stop-opacity="0.28"/>
      <stop offset="1" stop-color="var(--violet)" stop-opacity="0"/>
    </radialGradient>

    <!-- 线条渐变（蓝系） -->
    <linearGradient id="wire" x1="0" y1="0" x2="1" y2="0">
      <stop offset="0" stop-color="var(--blue-soft)"/>
      <stop offset="1" stop-color="var(--blue)"/>
    </linearGradient>

    <!-- 机械臂金属渐变 -->
    <linearGradient id="armGrad" x1="0" y1="0" x2="1" y2="1">
      <stop offset="0" stop-color="var(--ink1)"/>
      <stop offset="1" stop-color="var(--ink3)"/>
    </linearGradient>

    <!-- 柔光滤镜 -->
    <filter id="softGlow" x="-50%" y="-50%" width="200%" height="200%">
      <feGaussianBlur stdDeviation="3" result="b"/>
      <feMerge>
        <feMergeNode in="b"/>
        <feMergeNode in="SourceGraphic"/>
      </feMerge>
    </filter>

    <!-- 细光滤镜（线条发光） -->
    <filter id="fineGlow" x="-50%" y="-50%" width="200%" height="200%">
      <feGaussianBlur stdDeviation="1.6" result="b"/>
      <feMerge>
        <feMergeNode in="b"/>
        <feMergeNode in="SourceGraphic"/>
      </feMerge>
    </filter>
  </defs>

  <!-- 背景 -->
  <rect width="1200" height="900" fill="url(#bg)"/>
  <rect width="1200" height="900" fill="url(#glow)"/>

  <!-- 斜向轻纹理 -->
  <g opacity="0.18">
    <path d="M0 760 L1200 420" stroke="#E0E7FF" stroke-width="1"/>
    <path d="M0 820 L1200 480" stroke="#E0E7FF" stroke-width="1"/>
    <path d="M0 880 L1200 540" stroke="#E0E7FF" stroke-width="1"/>
  </g>

  <!-- 地球线网（左侧偏中） -->
  <g transform="translate(380,450)">
    <circle r="230" fill="none" stroke="var(--blue-tint)" stroke-width="1.4"/>
    <circle r="180" fill="none" stroke="var(--blue-tint)" stroke-width="1.1" opacity="0.9"/>
    <circle r="130" fill="none" stroke="var(--blue-tint)" stroke-width="1" opacity="0.8"/>

    <!-- 纬线 -->
    <g stroke="url(#wire)" stroke-width="1.1">
      <ellipse rx="230" ry="200"/>
      <ellipse rx="230" ry="150"/>
      <ellipse rx="230" ry="100"/>
      <ellipse rx="230" ry="50"/>
    </g>
    <!-- 经线 -->
    <g stroke="url(#wire)" stroke-width="1.1">
      <ellipse rx="200" ry="230" transform="rotate(0)"/>
      <ellipse rx="170" ry="230" transform="rotate(20)"/>
      <ellipse rx="170" ry="230" transform="rotate(-20)"/>
      <ellipse rx="130" ry="230" transform="rotate(40)"/>
      <ellipse rx="130" ry="230" transform="rotate(-40)"/>
    </g>

    <!-- 连接节点 -->
    <g filter="url(#softGlow)">
      <circle cx="-90" cy="-70" r="6" fill="var(--blue)"/>
      <circle cx="70" cy="50" r="6" fill="var(--blue)"/>
      <circle cx="130" cy="-90" r="6" fill="var(--blue)"/>
      <circle cx="-150" cy="100" r="6" fill="var(--blue)"/>
      <circle cx="0" cy="0" r="5" fill="var(--green)"/>
    </g>
  </g>

  <!-- 从左侧/地球延伸的芯片电路线 -->
  <g stroke="url(#wire)" stroke-width="2.4" stroke-linecap="round" stroke-linejoin="round" filter="url(#fineGlow)" opacity="0.95">
    <path d="M80 420 h180 a20 20 0 0 1 20 20 v20 h110"/>
    <path d="M60 480 h220 a18 18 0 0 0 18 -18 v-22 h150"/>
    <path d="M50 540 h250 a22 22 0 0 0 22 -22 v-26 h180"/>
  </g>

  <!-- 工厂剪影（底部左侧，代表制造场景） -->
  <g transform="translate(120,640)" fill="var(--ink2)" opacity="0.85">
    <rect x="0"  y="100" width="160" height="90"/>
    <rect x="170" y="60"  width="120" height="130"/>
    <rect x="300" y="80"  width="90"  height="110"/>
    <rect x="400" y="50"  width="140" height="140"/>
    <!-- 烟囱 -->
    <rect x="445" y="0" width="24" height="70"/>
    <rect x="470" y="10" width="18" height="60"/>
    <!-- 屋顶/窗格 -->
    <rect x="10" y="120" width="30" height="20" fill="#9CA3AF"/>
    <rect x="50" y="120" width="30" height="20" fill="#9CA3AF"/>
    <rect x="90" y="120" width="30" height="20" fill="#9CA3AF"/>
    <rect x="130" y="120" width="30" height="20" fill="#9CA3AF"/>
  </g>

  <!-- 机械臂（右侧） -->
  <g transform="translate(760,360)">
    <!-- 底座 -->
    <rect x="0" y="280" width="260" height="40" rx="10" fill="url(#armGrad)"/>
    <!-- 立柱 -->
    <rect x="110" y="140" width="40" height="140" rx="10" fill="url(#armGrad)"/>
    <!-- 肩关节 -->
    <circle cx="130" cy="140" r="18" fill="var(--blue)"/>
    <!-- 上臂 -->
    <path d="M130 140 L220 100 L234 118 L154 158 Z" fill="var(--ink3)"/>
    <!-- 肘关节 -->
    <circle cx="228" cy="108" r="14" fill="var(--violet)"/>
    <!-- 前臂 -->
    <path d="M228 108 L310 138 L304 156 L220 122 Z" fill="var(--ink2)"/>
    <!-- 腕关节 -->
    <circle cx="306" cy="148" r="12" fill="var(--blue)"/>
    <!-- 夹爪 -->
    <path d="M306 148 l36 -10 l8 12 l-34 12 Z" fill="var(--ink1)"/>
    <path d="M346 138 l14 -8 l10 16 l-14 8 Z" fill="var(--ink1)"/>
    <!-- 线缆光 -->
    <path d="M110 180 C 80 200, 50 230, 10 250" stroke="var(--violet)" stroke-width="3" opacity="0.55" fill="none" filter="url(#softGlow)"/>
  </g>

  <!-- 地球到机械臂的连接线路（象征"全球到中国智造"） -->
  <g stroke="url(#wire)" stroke-width="2.4" stroke-linecap="round" stroke-linejoin="round" filter="url(#fineGlow)" opacity="0.95">
    <path d="M610 450 H 700 a16 16 0 0 1 16 16 v24 h130 a16 16 0 0 0 16 -16 v-14 h120"/>
    <path d="M600 410 H 760 v-18 a14 14 0 0 1 14 -14 h110"/>
    <path d="M600 490 H 780 v22 a14 14 0 0 0 14 14 h90"/>
  </g>

  <!-- 科技感小图标点缀（右上角） -->
  <g transform="translate(960,120)" opacity="0.9" filter="url(#softGlow)">
    <circle cx="0" cy="0" r="8" fill="var(--green)"/>
    <rect x="40" y="-8" width="16" height="16" rx="3" fill="var(--blue)"/>
    <path d="M80 -6 L96 10 L80 10 Z" fill="var(--violet)"/>
  </g>

  <!-- 文案安全区（不可见，仅提示，必要时可删除） -->
  <rect x="180" y="220" width="520" height="320" rx="12" fill="#000" opacity="0.0"/>
</svg>