<svg width="1600" height="900" viewBox="0 0 1600 900" fill="none" xmlns="http://www.w3.org/2000/svg" role="img" aria-label="Abstract AI robotics manufacturing scene">
  <!-- ================= THEME (edit to match brand) ================= -->
  <defs>
    <style><![CDATA[
      :root {
        --blue: #2563EB;       /* 主蓝 text-blue-600 */
        --blue-soft: #93C5FD;  /* 浅蓝 */
        --blue-tint: #CFE3FF;  /* 更浅蓝 */
        --ink1: #0F172A;       /* 深灰蓝 */
        --ink2: #2B3648;       /* 次深灰蓝 */
        --ink3: #475569;       /* 中灰蓝 */
        --ink4: #9CA3AF;       /* 浅灰细节 */
        --bg-hi: #F3F4F6;      /* 背景上 */
        --bg-lo: #E5E7EB;      /* 背景下 */
        --violet: #7C3AED;     /* 紫点缀 */
        --green: #10B981;      /* 绿点缀 */
      }
    ]]></style>

    <!-- 背景与mesh -->
    <linearGradient id="bg" x1="0" y1="0" x2="0" y2="900">
      <stop offset="0" stop-color="var(--bg-hi)"/>
      <stop offset="1" stop-color="var(--bg-lo)"/>
    </linearGradient>
    <radialGradient id="mesh" cx="0" cy="0" r="1" gradientUnits="userSpaceOnUse"
      gradientTransform="translate(1110 380) rotate(90) scale(540 820)">
      <stop offset="0" stop-color="var(--violet)" stop-opacity="0.20"/>
      <stop offset="1" stop-color="var(--violet)" stop-opacity="0"/>
    </radialGradient>

    <!-- 金属与线路 -->
    <linearGradient id="metal" x1="0" y1="0" x2="1" y2="1">
      <stop offset="0" stop-color="var(--ink2)"/>
      <stop offset="1" stop-color="var(--ink3)"/>
    </linearGradient>
    <linearGradient id="rail" x1="0" y1="0" x2="1" y2="0">
      <stop offset="0" stop-color="var(--blue-soft)"/>
      <stop offset="1" stop-color="var(--blue)"/>
    </linearGradient>

    <!-- 柔光/线光 -->
    <filter id="softGlow" x="-50%" y="-50%" width="200%" height="200%">
      <feGaussianBlur stdDeviation="2.4" result="b"/>
      <feMerge><feMergeNode in="b"/><feMergeNode in="SourceGraphic"/></feMerge>
    </filter>
    <filter id="lineGlow" x="-50%" y="-50%" width="200%" height="200%">
      <feGaussianBlur stdDeviation="1.2" result="b"/>
      <feMerge><feMergeNode in="b"/><feMergeNode in="SourceGraphic"/></feMerge>
    </filter>
  </defs>

  <!-- 背景与mesh -->
  <rect width="1600" height="900" fill="url(#bg)"/>
  <rect width="1600" height="900" fill="url(#mesh)"/>

  <!-- 轻量纹理与房间感 -->
  <g opacity="0.10">
    <path d="M0 720 L1600 440" stroke="#E0E7FF" stroke-width="1"/>
    <path d="M0 780 L1600 500" stroke="#E0E7FF" stroke-width="1"/>
  </g>
  <g stroke="#CBD5E1" stroke-width="2" opacity="0.45">
    <polyline points="980,170 980,840"/>
    <polyline points="1240,230 1240,860"/>
    <polyline points="1440,280 1440,880"/>
  </g>

  <!-- 远处灯带 -->
  <g stroke="#EEF2FF" stroke-width="10" opacity="0.7">
    <line x1="880" y1="110" x2="1100" y2="160"/>
    <line x1="1100" y1="160" x2="1310" y2="210"/>
    <line x1="1310" y1="210" x2="1500" y2="250"/>
  </g>

  <!-- 透视传送带（块面+渐变） -->
  <g filter="url(#lineGlow)">
    <polygon points="360,640 760,610 1180,592 1540,580 1540,610 1180,622 760,640 360,660"
             fill="url(#rail)" opacity="0.85"/>
    <!-- 导轨线 -->
    <polyline points="380,560 760,540 1140,522 1500,512" stroke="url(#rail)" stroke-width="6" stroke-linecap="round"/>
    <polyline points="340,700 740,670 1140,648 1540,632" stroke="url(#rail)" stroke-width="4" stroke-linecap="round" opacity="0.7"/>
  </g>

  <!-- 工位方块 -->
  <g fill="var(--ink3)" opacity="0.9">
    <rect x="720" y="585" width="46" height="26" rx="6"/>
    <rect x="930" y="575" width="52" height="28" rx="6"/>
    <rect x="1140" y="565" width="56" height="30" rx="6"/>
  </g>

  <!-- 数据流（从左至右） -->
  <g stroke="url(#rail)" stroke-width="2.6" stroke-linecap="round" filter="url(#lineGlow)" opacity="0.95">
    <path d="M120 500 h240 a22 22 0 0 1 22 22 v18 h140"/>
    <path d="M90  560 h280 a18 18 0 0 0 18 -18 v-22 h170"/>
  </g>

  <!-- 极简机械臂（几何块面+渐变，视觉主角） -->
  <g transform="translate(580,330)">
    <!-- 基座 -->
    <rect x="-20" y="240" width="150" height="28" rx="10" fill="var(--ink2)"/>
    <!-- 立柱 -->
    <rect x="40" y="140" width="22" height="110" rx="9" fill="url(#metal)"/>
    <!-- 肩关节 -->
    <circle cx="51" cy="140" r="14" fill="var(--blue)"/>
    <!-- 上臂（带渐变阴影） -->
    <path d="M51 140 L 154 102 L 166 120 L 72 160 Z" fill="url(#metal)"/>
    <!-- 肘关节 -->
    <circle cx="160" cy="112" r="12" fill="var(--violet)"/>
    <!-- 前臂 -->
    <path d="M160 112 L 268 142 L 260 160 L 152 130 Z" fill="var(--ink3)"/>
    <!-- 腕关节 -->
    <circle cx="264" cy="151" r="10" fill="var(--blue)"/>
    <!-- 夹爪（抽象几何） -->
    <path d="M264 151 l30 -9 l7 11 l-30 11 Z" fill="var(--ink1)"/>
    <path d="M300 142 l14 -7 l9 15 l-14 7 Z" fill="var(--ink1)"/>
    <!-- 电缆光 -->
    <path d="M40 188 C 14 204, -6 222, -26 232" stroke="var(--violet)" stroke-width="2.6" opacity="0.55" fill="none" filter="url(#softGlow)"/>
  </g>

  <!-- 工程师（极简剪影 + 笔电，抽象但可读） -->
  <g transform="translate(1310,390)">
    <!-- 身体块面 -->
    <rect x="-70" y="48" width="64" height="148" rx="14" fill="url(#metal)"/>
    <!-- 头部 -->
    <circle cx="-38" cy="20" r="22" fill="#5B6473"/>
    <!-- 眼镜/鼻梁（极简线条） -->
    <g stroke="var(--ink4)" stroke-width="2" opacity="0.9">
      <line x1="-52" y1="20" x2="-42" y2="20"/>
      <line x1="-34" y1="20" x2="-24" y2="20"/>
      <line x1="-42" y1="20" x2="-34" y2="20"/>
    </g>
    <!-- 手臂到笔电 -->
    <path d="M-70 100 q 24 -10 40 6 q 10 11 20 9" stroke="var(--ink3)" stroke-width="14" fill="none" stroke-linecap="round"/>
    <!-- 笔电 -->
    <g transform="translate(-6,92)">
      <rect x="-88" y="0" width="88" height="12" rx="2" fill="var(--ink1)"/>
      <polygon points="-88,0 0,0 -8,-34 -96,-34" fill="var(--ink2)"/>
      <line x1="-78" y1="-10" x2="-18" y2="-10" stroke="var(--blue-soft)" stroke-width="3"/>
    </g>
  </g>

  <!-- 数据粒子（AI感） -->
  <g filter="url(#softGlow)">
    <circle cx="980" cy="300" r="4" fill="var(--green)"/>
    <circle cx="1010" cy="320" r="4" fill="var(--blue)"/>
    <circle cx="1044" cy="306" r="4" fill="var(--violet)"/>
    <circle cx="1080" cy="332" r="3.5" fill="var(--blue)"/>
  </g>

  <!-- 右上角模块元素（装饰） -->
  <g transform="translate(1460,140)" filter="url(#softGlow)" opacity="0.9">
    <circle cx="0" cy="0" r="8" fill="var(--green)"/>
    <rect x="26" y="-8" width="16" height="16" rx="3.5" fill="var(--blue)"/>
    <path d="M58 -6 L74 10 L58 10 Z" fill="var(--violet)"/>
  </g>

  <!-- 开发时的安全占位，可删 -->
  <rect x="160" y="160" width="560" height="320" rx="12" fill="#000" opacity="0"/>
</svg>